<?xml version="1.0" encoding="UTF-8" standalone="no"?>
<!DOCTYPE svg PUBLIC "-//W3C//DTD SVG 1.1//EN"
 "http://www.w3.org/Graphics/SVG/1.1/DTD/svg11.dtd">
<!-- Generated by graphviz version 4.0.0 (20220529.0937)
 -->
<!-- Pages: 1 -->
<svg width="540pt" height="126pt"
 viewBox="0.00 0.00 540.00 125.64" xmlns="http://www.w3.org/2000/svg" xmlns:xlink="http://www.w3.org/1999/xlink">
<g id="graph0" class="graph" transform="scale(1 1) rotate(0) translate(4 121.64)">
<polygon fill="white" stroke="transparent" points="-4,4 -4,-121.64 536,-121.64 536,4 -4,4"/>
<!-- tile_9 -->
<g id="node1" class="node">
<title>tile_9</title>
<polygon fill="lightgray" stroke="black" points="312,-117.64 275,-117.64 275,-99.64 312,-99.64 312,-117.64"/>
<text text-anchor="middle" x="293.5" y="-106.44" font-family="Times New Roman,serif" font-size="9.00">tile_9</text>
</g>
<!-- A -->
<g id="node11" class="node">
<title>A</title>
<ellipse fill="lightblue" stroke="black" cx="101.5" cy="-31.82" rx="16.03" ry="16.03"/>
<text text-anchor="middle" x="101.5" y="-29.62" font-family="Times New Roman,serif" font-size="9.00">A</text>
</g>
<!-- tile_9&#45;&gt;A -->
<g id="edge1" class="edge">
<title>tile_9&#45;&gt;A</title>
<path fill="none" stroke="green" stroke-width="0.54" d="M274.84,-102.24C271.73,-101.36 268.52,-100.46 265.5,-99.64 203.93,-82.87 180.18,-98.15 126.5,-63.64 122.55,-61.1 118.92,-57.72 115.74,-54.14"/>
<polygon fill="green" stroke="green" stroke-width="0.54" points="118.43,-51.9 109.5,-46.2 112.93,-56.22 118.43,-51.9"/>
</g>
<!-- B -->
<g id="node12" class="node">
<title>B</title>
<ellipse fill="lightblue" stroke="black" cx="284.5" cy="-31.82" rx="16.03" ry="16.03"/>
<text text-anchor="middle" x="284.5" y="-29.62" font-family="Times New Roman,serif" font-size="9.00">B</text>
</g>
<!-- tile_9&#45;&gt;B -->
<g id="edge2" class="edge">
<title>tile_9&#45;&gt;B</title>
<path fill="none" stroke="red" stroke-width="1.42" d="M292.54,-99.63C291.35,-89.74 289.27,-72.45 287.52,-57.93"/>
<polygon fill="red" stroke="red" stroke-width="1.42" points="291,-57.51 286.33,-48 284.05,-58.35 291,-57.51"/>
</g>
<!-- Y -->
<g id="node14" class="node">
<title>Y</title>
<ellipse fill="lightblue" stroke="black" cx="406.5" cy="-31.82" rx="16.03" ry="16.03"/>
<text text-anchor="middle" x="406.5" y="-29.62" font-family="Times New Roman,serif" font-size="9.00">Y</text>
</g>
<!-- tile_9&#45;&gt;Y -->
<g id="edge3" class="edge">
<title>tile_9&#45;&gt;Y</title>
<path fill="none" stroke="red" stroke-width="0.33" d="M312,-101.07C330.78,-93.82 360.06,-80.86 381.5,-63.64 385.01,-60.83 388.35,-57.44 391.38,-53.97"/>
<polygon fill="red" stroke="red" stroke-width="0.33" points="394.32,-55.9 397.84,-45.9 388.86,-51.52 394.32,-55.9"/>
</g>
<!-- UP -->
<g id="node15" class="node">
<title>UP</title>
<ellipse fill="lightblue" stroke="black" cx="46.5" cy="-31.82" rx="20.51" ry="20.51"/>
<text text-anchor="middle" x="46.5" y="-29.62" font-family="Times New Roman,serif" font-size="9.00">UP</text>
</g>
<!-- tile_9&#45;&gt;UP -->
<g id="edge4" class="edge">
<title>tile_9&#45;&gt;UP</title>
<path fill="none" stroke="green" stroke-width="0.15" d="M274.89,-102.07C271.76,-101.21 268.55,-100.36 265.5,-99.64 182.31,-79.87 151.81,-104.15 76.5,-63.64 72.65,-61.57 69,-58.84 65.65,-55.85"/>
<polygon fill="green" stroke="green" stroke-width="0.15" points="67.98,-53.23 58.44,-48.62 63.02,-58.17 67.98,-53.23"/>
</g>
<!-- DOWN -->
<g id="node16" class="node">
<title>DOWN</title>
<ellipse fill="lightblue" stroke="black" cx="472.5" cy="-31.82" rx="31.64" ry="31.64"/>
<text text-anchor="middle" x="472.5" y="-29.62" font-family="Times New Roman,serif" font-size="9.00">DOWN</text>
</g>
<!-- tile_9&#45;&gt;DOWN -->
<g id="edge5" class="edge">
<title>tile_9&#45;&gt;DOWN</title>
<path fill="none" stroke="green" stroke-width="0.64" d="M312.23,-102.05C347.38,-91.5 420.69,-69.22 431.5,-63.64 434.26,-62.21 437.03,-60.61 439.75,-58.89"/>
<polygon fill="green" stroke="green" stroke-width="0.64" points="441.92,-61.65 448.23,-53.14 437.99,-55.85 441.92,-61.65"/>
</g>
<!-- LEFT -->
<g id="node17" class="node">
<title>LEFT</title>
<ellipse fill="lightblue" stroke="black" cx="345.5" cy="-31.82" rx="26.74" ry="26.74"/>
<text text-anchor="middle" x="345.5" y="-29.62" font-family="Times New Roman,serif" font-size="9.00">LEFT</text>
</g>
<!-- tile_9&#45;&gt;LEFT -->
<g id="edge6" class="edge">
<title>tile_9&#45;&gt;LEFT</title>
<path fill="none" stroke="green" stroke-width="0.23" d="M299.06,-99.63C305.17,-90.85 315.33,-76.23 324.6,-62.9"/>
<polygon fill="green" stroke="green" stroke-width="0.23" points="327.67,-64.61 330.5,-54.4 321.92,-60.61 327.67,-64.61"/>
</g>
<!-- RIGHT -->
<g id="node18" class="node">
<title>RIGHT</title>
<ellipse fill="lightblue" stroke="black" cx="167.5" cy="-31.82" rx="31.64" ry="31.64"/>
<text text-anchor="middle" x="167.5" y="-29.62" font-family="Times New Roman,serif" font-size="9.00">RIGHT</text>
</g>
<!-- tile_9&#45;&gt;RIGHT -->
<g id="edge7" class="edge">
<title>tile_9&#45;&gt;RIGHT</title>
<path fill="none" stroke="red" stroke-width="0.2" d="M275.77,-99.53C258.24,-91.27 230.87,-77.7 208.5,-63.64 205.87,-61.99 203.2,-60.21 200.54,-58.38"/>
<polygon fill="red" stroke="red" stroke-width="0.2" points="202.35,-55.38 192.18,-52.41 198.28,-61.07 202.35,-55.38"/>
</g>
<!-- tile_8 -->
<g id="node2" class="node">
<title>tile_8</title>
<polygon fill="lightgray" stroke="black" points="477,-117.64 440,-117.64 440,-99.64 477,-99.64 477,-117.64"/>
<text text-anchor="middle" x="458.5" y="-106.44" font-family="Times New Roman,serif" font-size="9.00">tile_8</text>
</g>
<!-- tile_8&#45;&gt;A -->
<g id="edge8" class="edge">
<title>tile_8&#45;&gt;A</title>
<path fill="none" stroke="red" stroke-width="0.34" d="M439.72,-101.63C436.98,-100.88 434.18,-100.19 431.5,-99.64 297.8,-72.15 246.06,-129.48 126.5,-63.64 122.31,-61.33 118.56,-58.01 115.31,-54.4"/>
<polygon fill="red" stroke="red" stroke-width="0.34" points="117.93,-52.06 109.04,-46.3 112.39,-56.35 117.93,-52.06"/>
</g>
<!-- tile_8&#45;&gt;B -->
<g id="edge9" class="edge">
<title>tile_8&#45;&gt;B</title>
<path fill="none" stroke="green" stroke-width="0.22" d="M439.91,-102.13C437.09,-101.29 434.22,-100.44 431.5,-99.64 377.29,-83.61 356.54,-95 309.5,-63.64 305.59,-61.03 301.99,-57.63 298.81,-54.03"/>
<polygon fill="green" stroke="green" stroke-width="0.22" points="301.5,-51.79 292.57,-46.1 296,-56.12 301.5,-51.79"/>
</g>
<!-- X -->
<g id="node13" class="node">
<title>X</title>
<ellipse fill="lightblue" stroke="black" cx="233.5" cy="-31.82" rx="16.03" ry="16.03"/>
<text text-anchor="middle" x="233.5" y="-29.62" font-family="Times New Roman,serif" font-size="9.00">X</text>
</g>
<!-- tile_8&#45;&gt;X -->
<g id="edge10" class="edge">
<title>tile_8&#45;&gt;X</title>
<path fill="none" stroke="red" stroke-width="0.41" d="M439.96,-101.93C437.14,-101.12 434.25,-100.33 431.5,-99.64 355.77,-80.53 326.56,-103.67 259.5,-63.64 255.22,-61.08 251.3,-57.56 247.89,-53.81"/>
<polygon fill="red" stroke="red" stroke-width="0.41" points="250.61,-51.61 241.61,-46.03 245.16,-56.01 250.61,-51.61"/>
</g>
<!-- tile_8&#45;&gt;Y -->
<g id="edge11" class="edge">
<title>tile_8&#45;&gt;Y</title>
<path fill="none" stroke="green" stroke-width="0.36" d="M452.94,-99.63C445.44,-88.86 431.84,-69.28 421.29,-54.1"/>
<polygon fill="green" stroke="green" stroke-width="0.36" points="424.08,-51.98 415.49,-45.76 418.33,-55.97 424.08,-51.98"/>
</g>
<!-- tile_8&#45;&gt;DOWN -->
<g id="edge12" class="edge">
<title>tile_8&#45;&gt;DOWN</title>
<path fill="none" stroke="red" stroke-width="0.36" d="M460,-99.63C461.22,-93.13 463.03,-83.42 464.9,-73.41"/>
<polygon fill="red" stroke="red" stroke-width="0.36" points="468.38,-73.88 466.78,-63.41 461.5,-72.59 468.38,-73.88"/>
</g>
<!-- tile_8&#45;&gt;LEFT -->
<g id="edge13" class="edge">
<title>tile_8&#45;&gt;LEFT</title>
<path fill="none" stroke="red" stroke-width="0.78" d="M442.33,-99.55C426.37,-91.3 401.52,-77.74 381.5,-63.64 378.66,-61.64 375.77,-59.45 372.93,-57.21"/>
<polygon fill="red" stroke="red" stroke-width="0.78" points="375.09,-54.45 365.14,-50.8 370.64,-59.85 375.09,-54.45"/>
</g>
<!-- tile_7 -->
<g id="node3" class="node">
<title>tile_7</title>
<polygon fill="lightgray" stroke="black" points="532,-117.64 495,-117.64 495,-99.64 532,-99.64 532,-117.64"/>
<text text-anchor="middle" x="513.5" y="-106.44" font-family="Times New Roman,serif" font-size="9.00">tile_7</text>
</g>
<!-- tile_7&#45;&gt;B -->
<g id="edge14" class="edge">
<title>tile_7&#45;&gt;B</title>
<path fill="none" stroke="green" stroke-width="0.38" d="M494.97,-101.92C492.14,-101.11 489.25,-100.33 486.5,-99.64 408.61,-80.22 378.15,-105.25 309.5,-63.64 305.48,-61.2 301.83,-57.88 298.63,-54.31"/>
<polygon fill="green" stroke="green" stroke-width="0.38" points="301.33,-52.07 292.4,-46.36 295.82,-56.39 301.33,-52.07"/>
</g>
<!-- tile_7&#45;&gt;X -->
<g id="edge15" class="edge">
<title>tile_7&#45;&gt;X</title>
<path fill="none" stroke="green" stroke-width="0.42" d="M494.99,-101.81C492.16,-101.02 489.27,-100.27 486.5,-99.64 386.87,-77.08 348.47,-113.83 259.5,-63.64 255.16,-61.19 251.22,-57.71 247.79,-53.98"/>
<polygon fill="green" stroke="green" stroke-width="0.42" points="250.52,-51.78 241.52,-46.18 245.06,-56.16 250.52,-51.78"/>
</g>
<!-- tile_7&#45;&gt;Y -->
<g id="edge16" class="edge">
<title>tile_7&#45;&gt;Y</title>
<path fill="none" stroke="green" stroke-width="0.16" d="M494.97,-100.24C477.46,-92.69 451.05,-79.8 431.5,-63.64 428.04,-60.77 424.71,-57.37 421.68,-53.88"/>
<polygon fill="green" stroke="green" stroke-width="0.16" points="424.21,-51.44 415.23,-45.82 418.75,-55.81 424.21,-51.44"/>
</g>
<!-- tile_7&#45;&gt;DOWN -->
<g id="edge17" class="edge">
<title>tile_7&#45;&gt;DOWN</title>
<path fill="none" stroke="red" stroke-width="0.21" stroke-dasharray="1,5" d="M509.11,-99.63C505.04,-92.2 498.67,-80.57 492.38,-69.09"/>
<polygon fill="red" stroke="red" stroke-width="0.21" points="495.27,-67.08 487.39,-60 489.13,-70.45 495.27,-67.08"/>
</g>
<!-- tile_7&#45;&gt;LEFT -->
<g id="edge18" class="edge">
<title>tile_7&#45;&gt;LEFT</title>
<path fill="none" stroke="red" stroke-width="0.23" d="M494.77,-101.84C460.8,-91.24 391.59,-69.35 381.5,-63.64 378.4,-61.88 375.32,-59.84 372.33,-57.66"/>
<polygon fill="red" stroke="red" stroke-width="0.23" points="374.28,-54.73 364.27,-51.25 369.92,-60.21 374.28,-54.73"/>
</g>
<!-- tile_7&#45;&gt;RIGHT -->
<g id="edge19" class="edge">
<title>tile_7&#45;&gt;RIGHT</title>
<path fill="none" stroke="red" stroke-width="0.56" stroke-dasharray="1,5" d="M494.72,-101.66C491.98,-100.91 489.18,-100.21 486.5,-99.64 364.61,-73.86 323.89,-110.62 208.5,-63.64 205.45,-62.4 202.42,-60.87 199.48,-59.17"/>
<polygon fill="red" stroke="red" stroke-width="0.56" points="201.24,-56.14 190.95,-53.63 197.43,-62.01 201.24,-56.14"/>
</g>
<!-- tile_6 -->
<g id="node4" class="node">
<title>tile_6</title>
<polygon fill="lightgray" stroke="black" points="37,-117.64 0,-117.64 0,-99.64 37,-99.64 37,-117.64"/>
<text text-anchor="middle" x="18.5" y="-106.44" font-family="Times New Roman,serif" font-size="9.00">tile_6</text>
</g>
<!-- tile_6&#45;&gt;A -->
<g id="edge20" class="edge">
<title>tile_6&#45;&gt;A</title>
<path fill="none" stroke="red" stroke-width="0.11" d="M31.18,-99.34C43.42,-91.03 62.15,-77.53 76.5,-63.64 79.73,-60.51 82.94,-56.98 85.92,-53.45"/>
<polygon fill="red" stroke="red" stroke-width="0.11" points="88.85,-55.39 92.4,-45.4 83.4,-51 88.85,-55.39"/>
</g>
<!-- tile_6&#45;&gt;B -->
<g id="edge21" class="edge">
<title>tile_6&#45;&gt;B</title>
<path fill="none" stroke="red" stroke-width="0.32" d="M37.01,-101.83C39.84,-101.04 42.74,-100.28 45.5,-99.64 139.03,-77.96 175.12,-111.24 258.5,-63.64 262.83,-61.17 266.77,-57.68 270.19,-53.94"/>
<polygon fill="red" stroke="red" stroke-width="0.32" points="272.92,-56.13 276.46,-46.15 267.46,-51.75 272.92,-56.13"/>
</g>
<!-- tile_6&#45;&gt;X -->
<g id="edge22" class="edge">
<title>tile_6&#45;&gt;X</title>
<path fill="none" stroke="red" stroke-width="0.41" d="M37.04,-101.96C39.87,-101.15 42.75,-100.35 45.5,-99.64 117.33,-81.09 145.38,-102.63 208.5,-63.64 212.5,-61.17 216.14,-57.83 219.33,-54.25"/>
<polygon fill="red" stroke="red" stroke-width="0.41" points="222.15,-56.34 225.57,-46.31 216.64,-52.01 222.15,-56.34"/>
</g>
<!-- tile_6&#45;&gt;UP -->
<g id="edge23" class="edge">
<title>tile_6&#45;&gt;UP</title>
<path fill="none" stroke="green" stroke-width="0.5" d="M21.5,-99.63C24.95,-90.41 30.81,-74.75 35.99,-60.91"/>
<polygon fill="green" stroke="green" stroke-width="0.5" points="39.37,-61.86 39.6,-51.27 32.81,-59.41 39.37,-61.86"/>
</g>
<!-- tile_6&#45;&gt;LEFT -->
<g id="edge24" class="edge">
<title>tile_6&#45;&gt;LEFT</title>
<path fill="none" stroke="green" stroke-width="0.69" d="M37.29,-101.67C40.03,-100.92 42.82,-100.22 45.5,-99.64 161.27,-74.75 201.46,-112.12 309.5,-63.64 312.75,-62.18 315.93,-60.33 318.98,-58.27"/>
<polygon fill="green" stroke="green" stroke-width="0.69" points="321.31,-60.89 327.12,-52.03 317.06,-55.33 321.31,-60.89"/>
</g>
<!-- tile_6&#45;&gt;RIGHT -->
<g id="edge25" class="edge">
<title>tile_6&#45;&gt;RIGHT</title>
<path fill="none" stroke="green" stroke-width="0.24" d="M37.13,-101.7C59.2,-94.28 96.73,-80.51 126.5,-63.64 129.2,-62.11 131.93,-60.42 134.62,-58.65"/>
<polygon fill="green" stroke="green" stroke-width="0.24" points="136.83,-61.38 143.05,-52.8 132.84,-55.63 136.83,-61.38"/>
</g>
<!-- tile_5 -->
<g id="node5" class="node">
<title>tile_5</title>
<polygon fill="lightgray" stroke="black" points="92,-117.64 55,-117.64 55,-99.64 92,-99.64 92,-117.64"/>
<text text-anchor="middle" x="73.5" y="-106.44" font-family="Times New Roman,serif" font-size="9.00">tile_5</text>
</g>
<!-- tile_5&#45;&gt;A -->
<g id="edge26" class="edge">
<title>tile_5&#45;&gt;A</title>
<path fill="none" stroke="green" stroke-width="0.91" d="M76.5,-99.63C80.28,-89.52 86.96,-71.68 92.46,-56.97"/>
<polygon fill="green" stroke="green" stroke-width="0.91" points="95.81,-58.02 96.03,-47.43 89.25,-55.57 95.81,-58.02"/>
</g>
<!-- tile_5&#45;&gt;B -->
<g id="edge27" class="edge">
<title>tile_5&#45;&gt;B</title>
<path fill="none" stroke="green" stroke-width="0.33" d="M92.05,-101.97C94.87,-101.16 97.76,-100.36 100.5,-99.64 170.17,-81.4 196.99,-101.1 258.5,-63.64 262.65,-61.11 266.46,-57.69 269.81,-54.05"/>
<polygon fill="green" stroke="green" stroke-width="0.33" points="272.78,-55.94 276.36,-45.97 267.34,-51.53 272.78,-55.94"/>
</g>
<!-- tile_5&#45;&gt;X -->
<g id="edge28" class="edge">
<title>tile_5&#45;&gt;X</title>
<path fill="none" stroke="green" stroke-width="0.22" stroke-dasharray="1,5" d="M92.28,-101.83C128.2,-90.67 203.56,-67.03 208.5,-63.64 212.37,-60.98 215.96,-57.55 219.13,-53.94"/>
<polygon fill="green" stroke="green" stroke-width="0.22" points="221.94,-56.04 225.38,-46.02 216.44,-51.7 221.94,-56.04"/>
</g>
<!-- tile_5&#45;&gt;Y -->
<g id="edge29" class="edge">
<title>tile_5&#45;&gt;Y</title>
<path fill="none" stroke="green" stroke-width="0.53" d="M92.28,-101.65C95.02,-100.9 97.82,-100.2 100.5,-99.64 223.7,-73.67 271.51,-124.92 381.5,-63.64 385.68,-61.31 389.42,-57.98 392.67,-54.37"/>
<polygon fill="green" stroke="green" stroke-width="0.53" points="395.59,-56.31 398.94,-46.27 390.05,-52.03 395.59,-56.31"/>
</g>
<!-- tile_5&#45;&gt;UP -->
<g id="edge30" class="edge">
<title>tile_5&#45;&gt;UP</title>
<path fill="none" stroke="green" stroke-width="0.28" stroke-dasharray="1,5" d="M70.61,-99.63C67.28,-90.41 61.63,-74.75 56.64,-60.91"/>
<polygon fill="green" stroke="green" stroke-width="0.28" points="59.84,-59.48 53.16,-51.27 53.26,-61.86 59.84,-59.48"/>
</g>
<!-- tile_5&#45;&gt;DOWN -->
<g id="edge31" class="edge">
<title>tile_5&#45;&gt;DOWN</title>
<path fill="none" stroke="green" stroke-width="0.69" stroke-dasharray="1,5" d="M92.27,-101.61C95.01,-100.86 97.82,-100.18 100.5,-99.64 245.58,-70.5 293.88,-118.04 431.5,-63.64 434.56,-62.43 437.6,-60.92 440.55,-59.23"/>
<polygon fill="green" stroke="green" stroke-width="0.69" points="442.58,-62.09 449.09,-53.73 438.79,-56.21 442.58,-62.09"/>
</g>
<!-- tile_5&#45;&gt;RIGHT -->
<g id="edge32" class="edge">
<title>tile_5&#45;&gt;RIGHT</title>
<path fill="none" stroke="red" stroke-width="0.11" stroke-dasharray="1,5" d="M83.56,-99.63C95.72,-89.96 116.78,-73.19 134.77,-58.87"/>
<polygon fill="red" stroke="red" stroke-width="0.11" points="137.13,-61.47 142.77,-52.5 132.77,-55.99 137.13,-61.47"/>
</g>
<!-- tile_4 -->
<g id="node6" class="node">
<title>tile_4</title>
<polygon fill="lightgray" stroke="black" points="147,-117.64 110,-117.64 110,-99.64 147,-99.64 147,-117.64"/>
<text text-anchor="middle" x="128.5" y="-106.44" font-family="Times New Roman,serif" font-size="9.00">tile_4</text>
</g>
<!-- tile_4&#45;&gt;A -->
<g id="edge33" class="edge">
<title>tile_4&#45;&gt;A</title>
<path fill="none" stroke="red" stroke-width="1.44" d="M125.61,-99.63C121.96,-89.52 115.52,-71.68 110.22,-56.97"/>
<polygon fill="red" stroke="red" stroke-width="1.44" points="113.46,-55.65 106.77,-47.43 106.87,-58.02 113.46,-55.65"/>
</g>
<!-- tile_4&#45;&gt;B -->
<g id="edge34" class="edge">
<title>tile_4&#45;&gt;B</title>
<path fill="none" stroke="green" stroke-width="0.31" d="M147.04,-101.97C180.65,-91.61 249.05,-70.08 258.5,-63.64 262.45,-60.95 266.14,-57.51 269.42,-53.9"/>
<polygon fill="green" stroke="green" stroke-width="0.31" points="272.29,-55.93 275.93,-45.98 266.88,-51.48 272.29,-55.93"/>
</g>
<!-- tile_4&#45;&gt;X -->
<g id="edge35" class="edge">
<title>tile_4&#45;&gt;X</title>
<path fill="none" stroke="green" stroke-width="0.18" d="M147.23,-99.85C164.3,-92.2 189.65,-79.39 208.5,-63.64 211.95,-60.76 215.27,-57.34 218.29,-53.85"/>
<polygon fill="green" stroke="green" stroke-width="0.18" points="221.23,-55.78 224.75,-45.79 215.76,-51.41 221.23,-55.78"/>
</g>
<!-- tile_4&#45;&gt;Y -->
<g id="edge36" class="edge">
<title>tile_4&#45;&gt;Y</title>
<path fill="none" stroke="green" stroke-width="0.25" d="M147.01,-101.81C149.84,-101.02 152.73,-100.27 155.5,-99.64 254.69,-77.14 293.42,-114.5 381.5,-63.64 385.57,-61.29 389.25,-58 392.45,-54.45"/>
<polygon fill="green" stroke="green" stroke-width="0.25" points="395.27,-56.52 398.68,-46.49 389.76,-52.21 395.27,-56.52"/>
</g>
<!-- tile_4&#45;&gt;UP -->
<g id="edge37" class="edge">
<title>tile_4&#45;&gt;UP</title>
<path fill="none" stroke="red" stroke-width="0.33" d="M118.28,-99.48C107.61,-90.86 90.51,-76.71 76.5,-63.64 73.51,-60.85 70.43,-57.85 67.44,-54.85"/>
<polygon fill="red" stroke="red" stroke-width="0.33" points="69.76,-52.22 60.26,-47.53 64.76,-57.12 69.76,-52.22"/>
</g>
<!-- tile_4&#45;&gt;DOWN -->
<g id="edge38" class="edge">
<title>tile_4&#45;&gt;DOWN</title>
<path fill="none" stroke="green" stroke-width="0.23" d="M147.29,-101.66C150.02,-100.91 152.82,-100.21 155.5,-99.64 276.52,-73.99 316.95,-110.34 431.5,-63.64 434.55,-62.4 437.58,-60.87 440.52,-59.16"/>
<polygon fill="green" stroke="green" stroke-width="0.23" points="442.56,-62.01 449.05,-53.63 438.76,-56.14 442.56,-62.01"/>
</g>
<!-- tile_4&#45;&gt;LEFT -->
<g id="edge39" class="edge">
<title>tile_4&#45;&gt;LEFT</title>
<path fill="none" stroke="green" stroke-width="0.39" d="M147.05,-101.99C149.87,-101.17 152.76,-100.37 155.5,-99.64 223.45,-81.65 246.79,-95.4 309.5,-63.64 312.68,-62.03 315.81,-60.08 318.83,-57.96"/>
<polygon fill="green" stroke="green" stroke-width="0.39" points="321.2,-60.54 326.93,-51.63 316.9,-55.02 321.2,-60.54"/>
</g>
<!-- tile_4&#45;&gt;RIGHT -->
<g id="edge40" class="edge">
<title>tile_4&#45;&gt;RIGHT</title>
<path fill="none" stroke="red" stroke-width="0.32" d="M132.67,-99.63C136.52,-92.26 142.51,-80.76 148.45,-69.37"/>
<polygon fill="red" stroke="red" stroke-width="0.32" points="151.64,-70.82 153.16,-60.33 145.43,-67.58 151.64,-70.82"/>
</g>
<!-- tile_3 -->
<g id="node7" class="node">
<title>tile_3</title>
<polygon fill="lightgray" stroke="black" points="202,-117.64 165,-117.64 165,-99.64 202,-99.64 202,-117.64"/>
<text text-anchor="middle" x="183.5" y="-106.44" font-family="Times New Roman,serif" font-size="9.00">tile_3</text>
</g>
<!-- tile_3&#45;&gt;A -->
<g id="edge41" class="edge">
<title>tile_3&#45;&gt;A</title>
<path fill="none" stroke="green" stroke-width="0.61" stroke-dasharray="1,5" d="M171.5,-99.61C159.5,-91.31 140.81,-77.61 126.5,-63.64 123.28,-60.5 120.08,-56.96 117.1,-53.42"/>
<polygon fill="green" stroke="green" stroke-width="0.61" points="119.62,-50.97 110.62,-45.38 114.17,-55.37 119.62,-50.97"/>
</g>
<!-- tile_3&#45;&gt;B -->
<g id="edge42" class="edge">
<title>tile_3&#45;&gt;B</title>
<path fill="none" stroke="green" stroke-width="0.12" d="M200.96,-99.54C216.89,-91.67 240.61,-78.72 258.5,-63.64 262.15,-60.56 265.7,-56.94 268.95,-53.27"/>
<polygon fill="green" stroke="green" stroke-width="0.12" points="271.8,-55.32 275.49,-45.39 266.41,-50.85 271.8,-55.32"/>
</g>
<!-- tile_3&#45;&gt;X -->
<g id="edge43" class="edge">
<title>tile_3&#45;&gt;X</title>
<path fill="none" stroke="green" stroke-width="0.14" d="M188.85,-99.63C196.05,-88.86 209.13,-69.28 219.28,-54.1"/>
<polygon fill="green" stroke="green" stroke-width="0.14" points="222.21,-56.02 224.85,-45.76 216.39,-52.13 222.21,-56.02"/>
</g>
<!-- tile_3&#45;&gt;Y -->
<g id="edge44" class="edge">
<title>tile_3&#45;&gt;Y</title>
<path fill="none" stroke="red" stroke-width="0.67" d="M202.04,-101.93C204.86,-101.13 207.75,-100.34 210.5,-99.64 285.79,-80.59 315.22,-104.13 381.5,-63.64 385.51,-61.19 389.16,-57.86 392.35,-54.29"/>
<polygon fill="red" stroke="red" stroke-width="0.67" points="395.17,-56.37 398.59,-46.34 389.66,-52.05 395.17,-56.37"/>
</g>
<!-- tile_3&#45;&gt;UP -->
<g id="edge45" class="edge">
<title>tile_3&#45;&gt;UP</title>
<path fill="none" stroke="red" stroke-width="0.1" d="M164.96,-102.55C142.69,-95.89 104.79,-82.76 76.5,-63.64 72.95,-61.24 69.49,-58.37 66.25,-55.36"/>
<polygon fill="red" stroke="red" stroke-width="0.1" points="68.69,-52.85 59.16,-48.23 63.73,-57.79 68.69,-52.85"/>
</g>
<!-- tile_3&#45;&gt;DOWN -->
<g id="edge46" class="edge">
<title>tile_3&#45;&gt;DOWN</title>
<path fill="none" stroke="red" stroke-width="0.2" d="M202.01,-101.82C204.84,-101.03 207.74,-100.27 210.5,-99.64 307.51,-77.46 339.96,-102.67 431.5,-63.64 434.53,-62.35 437.54,-60.78 440.48,-59.06"/>
<polygon fill="red" stroke="red" stroke-width="0.2" points="442.54,-61.89 448.99,-53.48 438.7,-56.03 442.54,-61.89"/>
</g>
<!-- tile_3&#45;&gt;LEFT -->
<g id="edge47" class="edge">
<title>tile_3&#45;&gt;LEFT</title>
<path fill="none" stroke="green" stroke-width="0.23" d="M202.42,-101.98C232.77,-92.74 290.82,-74.38 309.5,-63.64 312.59,-61.86 315.66,-59.8 318.64,-57.61"/>
<polygon fill="green" stroke="green" stroke-width="0.23" points="321.05,-60.16 326.7,-51.2 316.69,-54.69 321.05,-60.16"/>
</g>
<!-- tile_3&#45;&gt;RIGHT -->
<g id="edge48" class="edge">
<title>tile_3&#45;&gt;RIGHT</title>
<path fill="none" stroke="green" stroke-width="0.27" d="M181.79,-99.63C180.38,-93.07 178.29,-83.26 176.12,-73.15"/>
<polygon fill="green" stroke="green" stroke-width="0.27" points="179.48,-72.11 173.97,-63.06 172.64,-73.57 179.48,-72.11"/>
</g>
<!-- tile_2 -->
<g id="node8" class="node">
<title>tile_2</title>
<polygon fill="lightgray" stroke="black" points="367,-117.64 330,-117.64 330,-99.64 367,-99.64 367,-117.64"/>
<text text-anchor="middle" x="348.5" y="-106.44" font-family="Times New Roman,serif" font-size="9.00">tile_2</text>
</g>
<!-- tile_2&#45;&gt;B -->
<g id="edge49" class="edge">
<title>tile_2&#45;&gt;B</title>
<path fill="none" stroke="red" stroke-width="0.12" d="M341.2,-99.62C333.29,-90.87 320.33,-76.41 309.5,-63.64 306.64,-60.27 303.65,-56.65 300.76,-53.13"/>
<polygon fill="red" stroke="red" stroke-width="0.12" points="303.37,-50.78 294.35,-45.22 297.93,-55.19 303.37,-50.78"/>
</g>
<!-- tile_2&#45;&gt;X -->
<g id="edge50" class="edge">
<title>tile_2&#45;&gt;X</title>
<path fill="none" stroke="red" stroke-width="0.47" d="M329.85,-101.03C310.91,-93.74 281.34,-80.75 259.5,-63.64 255.74,-60.69 252.14,-57.13 248.88,-53.49"/>
<polygon fill="red" stroke="red" stroke-width="0.47" points="251.42,-51.07 242.35,-45.59 246.02,-55.53 251.42,-51.07"/>
</g>
<!-- tile_2&#45;&gt;Y -->
<g id="edge51" class="edge">
<title>tile_2&#45;&gt;Y</title>
<path fill="none" stroke="green" stroke-width="0.15" d="M354.71,-99.63C363.24,-88.63 378.88,-68.45 390.75,-53.14"/>
<polygon fill="green" stroke="green" stroke-width="0.15" points="393.53,-55.27 396.89,-45.22 387.99,-50.98 393.53,-55.27"/>
</g>
<!-- tile_2&#45;&gt;UP -->
<g id="edge52" class="edge">
<title>tile_2&#45;&gt;UP</title>
<path fill="none" stroke="green" stroke-width="0.2" d="M329.91,-101.96C326.79,-101.11 323.56,-100.3 320.5,-99.64 213.34,-76.53 174.1,-113.55 76.5,-63.64 72.61,-61.65 68.93,-58.96 65.57,-56"/>
<polygon fill="green" stroke="green" stroke-width="0.2" points="67.9,-53.37 58.36,-48.77 62.95,-58.32 67.9,-53.37"/>
</g>
<!-- tile_2&#45;&gt;DOWN -->
<g id="edge53" class="edge">
<title>tile_2&#45;&gt;DOWN</title>
<path fill="none" stroke="red" stroke-width="0.9" d="M365.47,-99.62C382.56,-91.32 409.47,-77.63 431.5,-63.64 434.12,-61.97 436.79,-60.19 439.44,-58.35"/>
<polygon fill="red" stroke="red" stroke-width="0.9" points="441.7,-61.04 447.79,-52.37 437.62,-55.35 441.7,-61.04"/>
</g>
<!-- tile_2&#45;&gt;LEFT -->
<g id="edge54" class="edge">
<title>tile_2&#45;&gt;LEFT</title>
<path fill="none" stroke="green" stroke-width="0.3" d="M348.18,-99.63C347.88,-92.24 347.42,-80.72 346.96,-69.31"/>
<polygon fill="green" stroke="green" stroke-width="0.3" points="350.45,-68.84 346.55,-58.99 343.45,-69.12 350.45,-68.84"/>
</g>
<!-- tile_2&#45;&gt;RIGHT -->
<g id="edge55" class="edge">
<title>tile_2&#45;&gt;RIGHT</title>
<path fill="none" stroke="green" stroke-width="0.44" d="M329.78,-102.14C294.22,-91.64 219.49,-69.29 208.5,-63.64 205.74,-62.22 202.97,-60.62 200.24,-58.9"/>
<polygon fill="green" stroke="green" stroke-width="0.44" points="202,-55.87 191.76,-53.16 198.07,-61.66 202,-55.87"/>
</g>
<!-- tile_1 -->
<g id="node9" class="node">
<title>tile_1</title>
<polygon fill="lightgray" stroke="black" points="257,-117.64 220,-117.64 220,-99.64 257,-99.64 257,-117.64"/>
<text text-anchor="middle" x="238.5" y="-106.44" font-family="Times New Roman,serif" font-size="9.00">tile_1</text>
</g>
<!-- tile_1&#45;&gt;A -->
<g id="edge56" class="edge">
<title>tile_1&#45;&gt;A</title>
<path fill="none" stroke="green" stroke-width="0.21" d="M219.68,-101.55C191.98,-92.37 141.84,-74.87 126.5,-63.64 122.71,-60.86 119.16,-57.38 116,-53.76"/>
<polygon fill="green" stroke="green" stroke-width="0.21" points="118.69,-51.52 109.74,-45.85 113.2,-55.86 118.69,-51.52"/>
</g>
<!-- tile_1&#45;&gt;B -->
<g id="edge57" class="edge">
<title>tile_1&#45;&gt;B</title>
<path fill="none" stroke="red" stroke-width="0.51" d="M243.42,-99.63C249.95,-89.02 261.72,-69.87 270.99,-54.79"/>
<polygon fill="red" stroke="red" stroke-width="0.51" points="274.12,-56.39 276.38,-46.03 268.16,-52.72 274.12,-56.39"/>
</g>
<!-- tile_1&#45;&gt;X -->
<g id="edge58" class="edge">
<title>tile_1&#45;&gt;X</title>
<path fill="none" stroke="green" stroke-width="0.2" d="M237.96,-99.63C237.31,-89.9 236.18,-72.99 235.22,-58.62"/>
<polygon fill="green" stroke="green" stroke-width="0.2" points="238.69,-58.03 234.53,-48.29 231.71,-58.5 238.69,-58.03"/>
</g>
<!-- tile_1&#45;&gt;Y -->
<g id="edge59" class="edge">
<title>tile_1&#45;&gt;Y</title>
<path fill="none" stroke="red" stroke-width="0.88" d="M257.07,-102.08C295.17,-90.65 378.84,-65.43 381.5,-63.64 385.4,-61.01 388.99,-57.59 392.17,-53.99"/>
<polygon fill="red" stroke="red" stroke-width="0.88" points="394.97,-56.09 398.41,-46.07 389.47,-51.76 394.97,-56.09"/>
</g>
<!-- tile_1&#45;&gt;UP -->
<g id="edge60" class="edge">
<title>tile_1&#45;&gt;UP</title>
<path fill="none" stroke="green" stroke-width="0.86" d="M219.84,-102.26C216.72,-101.38 213.52,-100.48 210.5,-99.64 151.07,-83.17 129.69,-94.85 76.5,-63.64 72.81,-61.47 69.26,-58.73 65.98,-55.77"/>
<polygon fill="green" stroke="green" stroke-width="0.86" points="68.42,-53.27 58.88,-48.68 63.48,-58.22 68.42,-53.27"/>
</g>
<!-- tile_1&#45;&gt;DOWN -->
<g id="edge61" class="edge">
<title>tile_1&#45;&gt;DOWN</title>
<path fill="none" stroke="green" stroke-width="0.4" d="M257.04,-101.95C259.87,-101.14 262.75,-100.34 265.5,-99.64 338.63,-80.9 362.85,-95.05 431.5,-63.64 434.5,-62.27 437.48,-60.65 440.4,-58.88"/>
<polygon fill="green" stroke="green" stroke-width="0.4" points="442.49,-61.7 448.88,-53.25 438.62,-55.87 442.49,-61.7"/>
</g>
<!-- tile_1&#45;&gt;LEFT -->
<g id="edge62" class="edge">
<title>tile_1&#45;&gt;LEFT</title>
<path fill="none" stroke="green" stroke-width="0.55" d="M253.06,-99.5C267.72,-91.1 290.77,-77.34 309.5,-63.64 312.31,-61.59 315.17,-59.37 317.99,-57.1"/>
<polygon fill="green" stroke="green" stroke-width="0.55" points="320.3,-59.74 325.76,-50.66 315.83,-54.35 320.3,-59.74"/>
</g>
<!-- tile_1&#45;&gt;RIGHT -->
<g id="edge63" class="edge">
<title>tile_1&#45;&gt;RIGHT</title>
<path fill="none" stroke="green" stroke-width="0.16" stroke-dasharray="1,5" d="M230.9,-99.63C222.65,-90.93 208.96,-76.51 196.41,-63.28"/>
<polygon fill="green" stroke="green" stroke-width="0.16" points="198.62,-60.53 189.2,-55.69 193.54,-65.35 198.62,-60.53"/>
</g>
<!-- tile_0 -->
<g id="node10" class="node">
<title>tile_0</title>
<polygon fill="lightgray" stroke="black" points="422,-117.64 385,-117.64 385,-99.64 422,-99.64 422,-117.64"/>
<text text-anchor="middle" x="403.5" y="-106.44" font-family="Times New Roman,serif" font-size="9.00">tile_0</text>
</g>
<!-- tile_0&#45;&gt;A -->
<g id="edge64" class="edge">
<title>tile_0&#45;&gt;A</title>
<path fill="none" stroke="red" stroke-width="0.2" d="M384.71,-101.69C381.97,-100.94 379.17,-100.23 376.5,-99.64 266.84,-75.63 224.13,-119.04 126.5,-63.64 122.34,-61.28 118.6,-57.94 115.36,-54.32"/>
<polygon fill="red" stroke="red" stroke-width="0.2" points="117.98,-51.98 109.08,-46.22 112.44,-56.27 117.98,-51.98"/>
</g>
<!-- tile_0&#45;&gt;B -->
<g id="edge65" class="edge">
<title>tile_0&#45;&gt;B</title>
<path fill="none" stroke="red" stroke-width="0.49" d="M384.83,-101.73C364.81,-94.78 332.78,-81.84 309.5,-63.64 305.96,-60.87 302.6,-57.51 299.56,-54.04"/>
<polygon fill="red" stroke="red" stroke-width="0.49" points="302.08,-51.6 293.1,-45.97 296.62,-55.97 302.08,-51.6"/>
</g>
<!-- tile_0&#45;&gt;X -->
<g id="edge66" class="edge">
<title>tile_0&#45;&gt;X</title>
<path fill="none" stroke="red" stroke-width="0.29" d="M384.8,-102.08C346.44,-90.64 262.19,-65.42 259.5,-63.64 255.51,-61.01 251.81,-57.59 248.51,-53.99"/>
<polygon fill="red" stroke="red" stroke-width="0.29" points="251.06,-51.58 242.01,-46.07 245.64,-56.02 251.06,-51.58"/>
</g>
<!-- tile_0&#45;&gt;Y -->
<g id="edge67" class="edge">
<title>tile_0&#45;&gt;Y</title>
<path fill="none" stroke="red" stroke-width="0.37" d="M403.82,-99.63C404.21,-89.9 404.89,-72.99 405.47,-58.62"/>
<polygon fill="red" stroke="red" stroke-width="0.37" points="408.98,-58.42 405.88,-48.29 401.98,-58.14 408.98,-58.42"/>
</g>
<!-- tile_0&#45;&gt;DOWN -->
<g id="edge68" class="edge">
<title>tile_0&#45;&gt;DOWN</title>
<path fill="none" stroke="red" stroke-width="0.19" d="M410.88,-99.63C418.91,-90.93 432.21,-76.51 444.41,-63.28"/>
<polygon fill="red" stroke="red" stroke-width="0.19" points="447.2,-65.41 451.41,-55.69 442.06,-60.67 447.2,-65.41"/>
</g>
<!-- tile_0&#45;&gt;LEFT -->
<g id="edge69" class="edge">
<title>tile_0&#45;&gt;LEFT</title>
<path fill="none" stroke="red" stroke-width="0.11" d="M397.29,-99.63C390.27,-90.58 378.45,-75.32 367.86,-61.67"/>
<polygon fill="red" stroke="red" stroke-width="0.11" points="370.38,-59.2 361.49,-53.44 364.85,-63.49 370.38,-59.2"/>
</g>
<!-- tile_0&#45;&gt;RIGHT -->
<g id="edge70" class="edge">
<title>tile_0&#45;&gt;RIGHT</title>
<path fill="none" stroke="red" stroke-width="0.67" stroke-dasharray="1,5" d="M384.96,-101.94C382.14,-101.13 379.25,-100.34 376.5,-99.64 302.5,-80.78 277.98,-95.32 208.5,-63.64 205.5,-62.27 202.51,-60.66 199.6,-58.89"/>
<polygon fill="red" stroke="red" stroke-width="0.67" points="201.38,-55.87 191.11,-53.26 197.51,-61.71 201.38,-55.87"/>
</g>
</g>
</svg>
