<?xml version="1.0" encoding="UTF-8" standalone="no"?>
<!DOCTYPE svg PUBLIC "-//W3C//DTD SVG 1.1//EN"
 "http://www.w3.org/Graphics/SVG/1.1/DTD/svg11.dtd">
<!-- Generated by graphviz version 4.0.0 (20220529.0937)
 -->
<!-- Pages: 1 -->
<svg width="1435pt" height="204pt"
 viewBox="0.00 0.00 1435.44 204.07" xmlns="http://www.w3.org/2000/svg" xmlns:xlink="http://www.w3.org/1999/xlink">
<g id="graph0" class="graph" transform="scale(1 1) rotate(0) translate(4 200.07)">
<polygon fill="white" stroke="transparent" points="-4,4 -4,-200.07 1431.44,-200.07 1431.44,4 -4,4"/>
<!-- tile_9 -->
<g id="node1" class="node">
<title>tile_9</title>
<polygon fill="lightgray" stroke="black" points="801.48,-196.07 764.48,-196.07 764.48,-178.07 801.48,-178.07 801.48,-196.07"/>
<text text-anchor="middle" x="782.98" y="-184.87" font-family="Times New Roman,serif" font-size="9.00">tile_9</text>
</g>
<!-- A -->
<g id="node11" class="node">
<title>A</title>
<ellipse fill="lightblue" stroke="black" cx="786.98" cy="-31.82" rx="16.03" ry="16.03"/>
<text text-anchor="middle" x="786.98" y="-29.62" font-family="Times New Roman,serif" font-size="9.00">A</text>
</g>
<!-- tile_9&#45;&gt;A -->
<g id="edge1" class="edge">
<title>tile_9&#45;&gt;A</title>
<path fill="none" stroke="green" stroke-width="0.46" d="M801.87,-183.33C857.9,-175.13 1019.68,-150.8 1026.98,-142.07 1039.07,-127.6 1038.69,-114.42 1026.98,-99.64 983.61,-44.88 941.01,-83.33 873.98,-63.64 852.52,-57.33 828.59,-48.74 811.27,-42.23"/>
<polygon fill="green" stroke="green" stroke-width="0.46" points="812.5,-38.95 801.91,-38.67 810.01,-45.49 812.5,-38.95"/>
</g>
<!-- B -->
<g id="node12" class="node">
<title>B</title>
<ellipse fill="lightblue" stroke="black" cx="464.98" cy="-31.82" rx="16.03" ry="16.03"/>
<text text-anchor="middle" x="464.98" y="-29.62" font-family="Times New Roman,serif" font-size="9.00">B</text>
</g>
<!-- tile_9&#45;&gt;B -->
<g id="edge2" class="edge">
<title>tile_9&#45;&gt;B</title>
<path fill="none" stroke="red" stroke-width="0.2" d="M764.29,-186.28C662.43,-187.25 177.2,-189.37 132.98,-142.07 120.11,-128.29 120.45,-113.73 132.98,-99.64 178.64,-48.32 379.8,-96.75 439.98,-63.64 444.17,-61.34 447.92,-58.02 451.17,-54.4"/>
<polygon fill="red" stroke="red" stroke-width="0.2" points="454.09,-56.35 457.44,-46.3 448.56,-52.06 454.09,-56.35"/>
</g>
<!-- X -->
<g id="node13" class="node">
<title>X</title>
<ellipse fill="lightblue" stroke="black" cx="684.98" cy="-31.82" rx="16.03" ry="16.03"/>
<text text-anchor="middle" x="684.98" y="-29.62" font-family="Times New Roman,serif" font-size="9.00">X</text>
</g>
<!-- tile_9&#45;&gt;X -->
<g id="edge3" class="edge">
<title>tile_9&#45;&gt;X</title>
<path fill="none" stroke="red" stroke-width="0.28" d="M783.12,-177.91C783.01,-161.61 780.78,-124.44 763.98,-99.64 748.01,-76.06 732.14,-82.7 710.98,-63.64 707.49,-60.5 704.05,-56.89 700.86,-53.27"/>
<polygon fill="red" stroke="red" stroke-width="0.28" points="703.49,-50.95 694.39,-45.51 698.11,-55.43 703.49,-50.95"/>
</g>
<!-- Y -->
<g id="node14" class="node">
<title>Y</title>
<ellipse fill="lightblue" stroke="black" cx="735.98" cy="-31.82" rx="16.03" ry="16.03"/>
<text text-anchor="middle" x="735.98" y="-29.62" font-family="Times New Roman,serif" font-size="9.00">Y</text>
</g>
<!-- tile_9&#45;&gt;Y -->
<g id="edge4" class="edge">
<title>tile_9&#45;&gt;Y</title>
<path fill="none" stroke="red" stroke-width="0.31" d="M801.51,-183.55C850.72,-176.68 981.74,-157.13 993.98,-142.07 1005.88,-127.43 1006.25,-113.96 993.98,-99.64 926.09,-20.4 852.95,-114.76 761.98,-63.64 757.63,-61.2 753.69,-57.73 750.27,-53.99"/>
<polygon fill="red" stroke="red" stroke-width="0.31" points="752.99,-51.79 744,-46.19 747.53,-56.18 752.99,-51.79"/>
</g>
<!-- UP -->
<g id="node15" class="node">
<title>UP</title>
<ellipse fill="lightblue" stroke="black" cx="903.98" cy="-31.82" rx="20.51" ry="20.51"/>
<text text-anchor="middle" x="903.98" y="-29.62" font-family="Times New Roman,serif" font-size="9.00">UP</text>
</g>
<!-- tile_9&#45;&gt;UP -->
<g id="edge5" class="edge">
<title>tile_9&#45;&gt;UP</title>
<path fill="none" stroke="red" stroke-width="0.45" d="M801.68,-183.51C813.98,-181.86 830.42,-179.73 844.98,-178.07 885.03,-173.49 1178.93,-171.95 1205.98,-142.07 1285.35,-54.39 1025.89,-37.01 934.58,-33.62"/>
<polygon fill="red" stroke="red" stroke-width="0.45" points="934.67,-30.12 924.55,-33.28 934.43,-37.12 934.67,-30.12"/>
</g>
<!-- DOWN -->
<g id="node16" class="node">
<title>DOWN</title>
<ellipse fill="lightblue" stroke="black" cx="530.98" cy="-31.82" rx="31.64" ry="31.64"/>
<text text-anchor="middle" x="530.98" y="-29.62" font-family="Times New Roman,serif" font-size="9.00">DOWN</text>
</g>
<!-- tile_9&#45;&gt;DOWN -->
<g id="edge6" class="edge">
<title>tile_9&#45;&gt;DOWN</title>
<path fill="none" stroke="red" stroke-width="0.3" d="M764.4,-186C673.96,-185.46 282.76,-180.91 246.98,-142.07 234.2,-128.2 234.66,-113.92 246.98,-99.64 282.64,-58.31 439.61,-84.69 489.98,-63.64 493.02,-62.37 496.04,-60.82 498.98,-59.11"/>
<polygon fill="red" stroke="red" stroke-width="0.3" points="501.03,-61.94 507.5,-53.55 497.21,-56.08 501.03,-61.94"/>
</g>
<!-- LEFT -->
<g id="node17" class="node">
<title>LEFT</title>
<ellipse fill="lightblue" stroke="black" cx="607.98" cy="-31.82" rx="26.74" ry="26.74"/>
<text text-anchor="middle" x="607.98" y="-29.62" font-family="Times New Roman,serif" font-size="9.00">LEFT</text>
</g>
<!-- tile_9&#45;&gt;LEFT -->
<g id="edge7" class="edge">
<title>tile_9&#45;&gt;LEFT</title>
<path fill="none" stroke="red" stroke-width="0.46" d="M764.2,-185.24C692.7,-181.91 440.29,-168.34 416.98,-142.07 404.47,-127.96 405.25,-114.4 416.98,-99.64 460.97,-44.26 508.87,-95.55 571.98,-63.64 575.16,-62.03 578.3,-60.09 581.31,-57.96"/>
<polygon fill="red" stroke="red" stroke-width="0.46" points="583.68,-60.55 589.42,-51.64 579.38,-55.03 583.68,-60.55"/>
</g>
<!-- RIGHT -->
<g id="node18" class="node">
<title>RIGHT</title>
<ellipse fill="lightblue" stroke="black" cx="398.98" cy="-31.82" rx="31.64" ry="31.64"/>
<text text-anchor="middle" x="398.98" y="-29.62" font-family="Times New Roman,serif" font-size="9.00">RIGHT</text>
</g>
<!-- tile_9&#45;&gt;RIGHT -->
<g id="edge8" class="edge">
<title>tile_9&#45;&gt;RIGHT</title>
<path fill="none" stroke="red" stroke-width="0.57" d="M764.42,-185.71C650.1,-183.43 45.4,-170.05 18.98,-142.07 -79.94,-37.29 238.87,-30.89 356.85,-31.98"/>
<polygon fill="red" stroke="red" stroke-width="0.57" points="356.93,-35.48 366.97,-32.1 357.01,-28.48 356.93,-35.48"/>
</g>
<!-- 333 -->
<g id="node20" class="node">
<title>333</title>
<ellipse fill="white" stroke="black" cx="831.98" cy="-120.85" rx="21.43" ry="21.43"/>
<text text-anchor="middle" x="831.98" y="-118.65" font-family="Times New Roman,serif" font-size="9.00">333</text>
</g>
<!-- tile_9&#45;&gt;333 -->
<g id="edge81" class="edge">
<title>tile_9&#45;&gt;333</title>
<path fill="none" stroke="green" stroke-width="0.52" d="M789.19,-177.93C795.22,-170.03 804.69,-157.61 813.19,-146.47"/>
<polygon fill="green" stroke="green" stroke-width="0.52" points="816.15,-148.37 819.43,-138.3 810.58,-144.13 816.15,-148.37"/>
</g>
<!-- tile_8 -->
<g id="node2" class="node">
<title>tile_8</title>
<polygon fill="lightgray" stroke="black" points="890.48,-196.07 853.48,-196.07 853.48,-178.07 890.48,-178.07 890.48,-196.07"/>
<text text-anchor="middle" x="871.98" y="-184.87" font-family="Times New Roman,serif" font-size="9.00">tile_8</text>
</g>
<!-- tile_8&#45;&gt;A -->
<g id="edge9" class="edge">
<title>tile_8&#45;&gt;A</title>
<path fill="none" stroke="red" stroke-width="0.84" d="M890.55,-180.31C893.68,-179.47 896.91,-178.68 899.98,-178.07 967.12,-164.62 1160.48,-193.23 1205.98,-142.07 1218.51,-127.98 1218.58,-113.67 1205.98,-99.64 1156.42,-44.41 946.33,-80.14 873.98,-63.64 852.17,-58.67 828.28,-49.95 811.06,-43.06"/>
<polygon fill="red" stroke="red" stroke-width="0.84" points="812.34,-39.8 801.76,-39.25 809.68,-46.28 812.34,-39.8"/>
</g>
<!-- tile_8&#45;&gt;B -->
<g id="edge10" class="edge">
<title>tile_8&#45;&gt;B</title>
<path fill="none" stroke="red" stroke-width="0.15" d="M853.33,-183.26C841.28,-181.53 825.23,-179.4 810.98,-178.07 740.07,-171.43 219.91,-193.82 170.98,-142.07 158.03,-128.36 158.56,-113.83 170.98,-99.64 210.7,-54.25 387.38,-93.14 439.98,-63.64 444.15,-61.3 447.9,-57.97 451.14,-54.35"/>
<polygon fill="red" stroke="red" stroke-width="0.15" points="454.06,-56.3 457.42,-46.25 448.52,-52.01 454.06,-56.3"/>
</g>
<!-- tile_8&#45;&gt;X -->
<g id="edge11" class="edge">
<title>tile_8&#45;&gt;X</title>
<path fill="none" stroke="green" stroke-width="0.43" d="M873.78,-177.96C877.01,-161.08 881.74,-121.89 861.98,-99.64 816.18,-48.04 769.73,-99.82 710.98,-63.64 706.85,-61.09 703.04,-57.66 699.7,-54.02"/>
<polygon fill="green" stroke="green" stroke-width="0.43" points="702.16,-51.5 693.14,-45.94 696.73,-55.91 702.16,-51.5"/>
</g>
<!-- tile_8&#45;&gt;Y -->
<g id="edge12" class="edge">
<title>tile_8&#45;&gt;Y</title>
<path fill="none" stroke="green" stroke-width="0.45" d="M890.57,-180.53C928.22,-169.29 1010.13,-144.59 1011.98,-142.07 1023.14,-126.86 1024.33,-113.89 1011.98,-99.64 938.48,-14.79 860.14,-118.1 761.98,-63.64 757.62,-61.22 753.67,-57.76 750.25,-54.03"/>
<polygon fill="green" stroke="green" stroke-width="0.45" points="752.97,-51.83 743.98,-46.22 747.51,-56.21 752.97,-51.83"/>
</g>
<!-- tile_8&#45;&gt;UP -->
<g id="edge13" class="edge">
<title>tile_8&#45;&gt;UP</title>
<path fill="none" stroke="red" stroke-width="0.11" d="M890.54,-180.23C893.67,-179.4 896.9,-178.63 899.98,-178.07 945.5,-169.67 1283.7,-176.18 1314.98,-142.07 1327.73,-128.17 1327.2,-114 1314.98,-99.64 1265.86,-41.89 1021.32,-33.92 934.57,-32.92"/>
<polygon fill="red" stroke="red" stroke-width="0.11" points="934.59,-29.42 924.56,-32.83 934.53,-36.42 934.59,-29.42"/>
</g>
<!-- tile_8&#45;&gt;DOWN -->
<g id="edge14" class="edge">
<title>tile_8&#45;&gt;DOWN</title>
<path fill="none" stroke="green" stroke-width="0.5" d="M853.33,-183.31C841.27,-181.61 825.22,-179.49 810.98,-178.07 752.69,-172.25 324.97,-184.88 284.98,-142.07 272.11,-128.28 272.86,-114.08 284.98,-99.64 344.47,-28.8 405.11,-100.45 489.98,-63.64 493,-62.33 496.01,-60.75 498.94,-59.02"/>
<polygon fill="green" stroke="green" stroke-width="0.5" points="501.01,-61.84 507.44,-53.43 497.17,-55.99 501.01,-61.84"/>
</g>
<!-- tile_8&#45;&gt;LEFT -->
<g id="edge15" class="edge">
<title>tile_8&#45;&gt;LEFT</title>
<path fill="none" stroke="red" stroke-width="0.42" d="M853.31,-183.47C841.24,-181.83 825.2,-179.72 810.98,-178.07 771.49,-173.48 481.64,-171.56 454.98,-142.07 442.34,-128.08 443.78,-114.81 454.98,-99.64 487.3,-55.88 524.32,-89.88 571.98,-63.64 575.1,-61.92 578.2,-59.9 581.19,-57.73"/>
<polygon fill="red" stroke="red" stroke-width="0.42" points="583.59,-60.3 589.26,-51.35 579.25,-54.8 583.59,-60.3"/>
</g>
<!-- tile_8&#45;&gt;RIGHT -->
<g id="edge16" class="edge">
<title>tile_8&#45;&gt;RIGHT</title>
<path fill="none" stroke="red" stroke-width="0.1" d="M853.34,-183.21C841.28,-181.47 825.24,-179.34 810.98,-178.07 769.21,-174.34 85.92,-172.42 56.98,-142.07 -32.19,-48.54 247.35,-34.85 356.9,-33.02"/>
<polygon fill="red" stroke="red" stroke-width="0.1" points="357,-36.52 366.95,-32.88 356.9,-29.52 357,-36.52"/>
</g>
<!-- 169 -->
<g id="node19" class="node">
<title>169</title>
<ellipse fill="white" stroke="black" cx="1175.98" cy="-120.85" rx="21.43" ry="21.43"/>
<text text-anchor="middle" x="1175.98" y="-118.65" font-family="Times New Roman,serif" font-size="9.00">169</text>
</g>
<!-- tile_8&#45;&gt;169 -->
<g id="edge77" class="edge">
<title>tile_8&#45;&gt;169</title>
<path fill="none" stroke="green" stroke-width="0.61" d="M890.57,-180.39C893.7,-179.54 896.92,-178.73 899.98,-178.07 1005.83,-155.14 1038.74,-177.77 1140.98,-142.07 1143.93,-141.04 1146.92,-139.75 1149.83,-138.33"/>
<polygon fill="green" stroke="green" stroke-width="0.61" points="1151.66,-141.32 1158.8,-133.49 1148.33,-135.16 1151.66,-141.32"/>
</g>
<!-- tile_7 -->
<g id="node3" class="node">
<title>tile_7</title>
<polygon fill="lightgray" stroke="black" points="589.48,-129.85 552.48,-129.85 552.48,-111.85 589.48,-111.85 589.48,-129.85"/>
<text text-anchor="middle" x="570.98" y="-118.65" font-family="Times New Roman,serif" font-size="9.00">tile_7</text>
</g>
<!-- tile_7&#45;&gt;A -->
<g id="edge17" class="edge">
<title>tile_7&#45;&gt;A</title>
<path fill="none" stroke="green" stroke-width="0.22" d="M579.85,-111.69C584.84,-107.5 591.38,-102.67 597.98,-99.64 665.42,-68.71 697.49,-102.02 760.98,-63.64 765.14,-61.13 768.95,-57.71 772.3,-54.07"/>
<polygon fill="green" stroke="green" stroke-width="0.22" points="775.27,-55.96 778.85,-45.99 769.83,-51.56 775.27,-55.96"/>
</g>
<!-- tile_7&#45;&gt;B -->
<g id="edge18" class="edge">
<title>tile_7&#45;&gt;B</title>
<path fill="none" stroke="red" stroke-width="0.35" d="M559.86,-111.71C554.74,-108 548.58,-103.56 542.98,-99.64 519.66,-83.3 510.95,-82.9 489.98,-63.64 486.67,-60.6 483.42,-57.11 480.42,-53.59"/>
<polygon fill="red" stroke="red" stroke-width="0.35" points="482.95,-51.14 473.95,-45.54 477.49,-55.53 482.95,-51.14"/>
</g>
<!-- tile_7&#45;&gt;X -->
<g id="edge19" class="edge">
<title>tile_7&#45;&gt;X</title>
<path fill="none" stroke="red" stroke-width="0.16" d="M581.5,-111.82C600.25,-97.5 639.78,-67.33 664.19,-48.7"/>
<polygon fill="red" stroke="red" stroke-width="0.16" points="666.6,-51.25 672.43,-42.4 662.36,-45.69 666.6,-51.25"/>
</g>
<!-- tile_7&#45;&gt;Y -->
<g id="edge20" class="edge">
<title>tile_7&#45;&gt;Y</title>
<path fill="none" stroke="red" stroke-width="0.68" d="M580.46,-111.53C585.42,-107.51 591.74,-102.86 597.98,-99.64 644.44,-75.64 666.55,-92.75 709.98,-63.64 713.95,-60.98 717.65,-57.55 720.94,-53.95"/>
<polygon fill="red" stroke="red" stroke-width="0.68" points="723.81,-55.97 727.44,-46.02 718.39,-51.53 723.81,-55.97"/>
</g>
<!-- tile_7&#45;&gt;UP -->
<g id="edge21" class="edge">
<title>tile_7&#45;&gt;UP</title>
<path fill="none" stroke="red" stroke-width="0.43" d="M579.79,-111.55C584.76,-107.33 591.31,-102.5 597.98,-99.64 686.64,-61.67 718.41,-87.03 811.98,-63.64 833.67,-58.22 857.59,-50.14 875.6,-43.61"/>
<polygon fill="red" stroke="red" stroke-width="0.43" points="877.03,-46.81 885.21,-40.07 874.61,-40.24 877.03,-46.81"/>
</g>
<!-- tile_7&#45;&gt;DOWN -->
<g id="edge22" class="edge">
<title>tile_7&#45;&gt;DOWN</title>
<path fill="none" stroke="red" stroke-width="0.55" d="M567.29,-111.82C562.93,-102.34 555.38,-85.91 548.29,-70.48"/>
<polygon fill="red" stroke="red" stroke-width="0.55" points="551.32,-68.7 543.97,-61.08 544.96,-71.62 551.32,-68.7"/>
</g>
<!-- tile_7&#45;&gt;LEFT -->
<g id="edge23" class="edge">
<title>tile_7&#45;&gt;LEFT</title>
<path fill="none" stroke="red" stroke-width="0.38" d="M574.4,-111.82C578.79,-101.48 586.71,-82.86 593.75,-66.3"/>
<polygon fill="red" stroke="red" stroke-width="0.38" points="597.07,-67.43 597.76,-56.86 590.63,-64.69 597.07,-67.43"/>
</g>
<!-- tile_7&#45;&gt;RIGHT -->
<g id="edge24" class="edge">
<title>tile_7&#45;&gt;RIGHT</title>
<path fill="none" stroke="green" stroke-width="0.12" d="M561.33,-111.82C556.13,-107.77 549.47,-103.02 542.98,-99.64 499.98,-77.21 482.76,-86.48 439.98,-63.64 437.24,-62.18 434.49,-60.54 431.77,-58.81"/>
<polygon fill="green" stroke="green" stroke-width="0.12" points="433.54,-55.77 423.31,-53.02 429.59,-61.55 433.54,-55.77"/>
</g>
<!-- tile_6 -->
<g id="node4" class="node">
<title>tile_6</title>
<polygon fill="lightgray" stroke="black" points="364.48,-129.85 327.48,-129.85 327.48,-111.85 364.48,-111.85 364.48,-129.85"/>
<text text-anchor="middle" x="345.98" y="-118.65" font-family="Times New Roman,serif" font-size="9.00">tile_6</text>
</g>
<!-- tile_6&#45;&gt;A -->
<g id="edge25" class="edge">
<title>tile_6&#45;&gt;A</title>
<path fill="none" stroke="red" stroke-width="0.25" d="M364.81,-117.11C391.99,-113.16 443.82,-105.69 487.98,-99.64 609.23,-83.02 653.61,-122.37 760.98,-63.64 765.36,-61.25 769.31,-57.8 772.74,-54.07"/>
<polygon fill="red" stroke="red" stroke-width="0.25" points="775.48,-56.25 779,-46.26 770.02,-51.87 775.48,-56.25"/>
</g>
<!-- tile_6&#45;&gt;B -->
<g id="edge26" class="edge">
<title>tile_6&#45;&gt;B</title>
<path fill="none" stroke="red" stroke-width="0.14" d="M359.12,-111.74C365.16,-108.03 372.42,-103.59 378.98,-99.64 405.96,-83.42 416.13,-84.19 439.98,-63.64 443.39,-60.71 446.68,-57.26 449.7,-53.77"/>
<polygon fill="red" stroke="red" stroke-width="0.14" points="452.63,-55.7 456.16,-45.71 447.17,-51.32 452.63,-55.7"/>
</g>
<!-- tile_6&#45;&gt;Y -->
<g id="edge27" class="edge">
<title>tile_6&#45;&gt;Y</title>
<path fill="none" stroke="green" stroke-width="0.41" d="M364.6,-117.16C437.8,-106.54 702.3,-67.95 709.98,-63.64 714.33,-61.2 718.27,-57.73 721.7,-53.99"/>
<polygon fill="green" stroke="green" stroke-width="0.41" points="724.43,-56.18 727.97,-46.19 718.97,-51.79 724.43,-56.18"/>
</g>
<!-- tile_6&#45;&gt;DOWN -->
<g id="edge28" class="edge">
<title>tile_6&#45;&gt;DOWN</title>
<path fill="none" stroke="red" stroke-width="0.33" d="M357.83,-111.66C363.95,-107.66 371.66,-103.01 378.98,-99.64 426.09,-77.94 443.96,-87.55 489.98,-63.64 492.74,-62.21 495.5,-60.59 498.23,-58.88"/>
<polygon fill="red" stroke="red" stroke-width="0.33" points="500.4,-61.63 506.7,-53.12 496.47,-55.84 500.4,-61.63"/>
</g>
<!-- tile_6&#45;&gt;LEFT -->
<g id="edge29" class="edge">
<title>tile_6&#45;&gt;LEFT</title>
<path fill="none" stroke="green" stroke-width="0.17" d="M357.05,-111.66C363.22,-107.46 371.2,-102.63 378.98,-99.64 460.43,-68.33 493.27,-101.3 571.98,-63.64 575.2,-62.1 578.35,-60.2 581.38,-58.11"/>
<polygon fill="green" stroke="green" stroke-width="0.17" points="583.74,-60.71 589.51,-51.82 579.46,-55.17 583.74,-60.71"/>
</g>
<!-- tile_6&#45;&gt;RIGHT -->
<g id="edge30" class="edge">
<title>tile_6&#45;&gt;RIGHT</title>
<path fill="none" stroke="green" stroke-width="0.31" d="M350.87,-111.82C356.93,-101.88 367.64,-84.29 377.42,-68.23"/>
<polygon fill="green" stroke="green" stroke-width="0.31" points="380.51,-69.89 382.72,-59.52 374.53,-66.24 380.51,-69.89"/>
</g>
<!-- tile_5 -->
<g id="node5" class="node">
<title>tile_5</title>
<polygon fill="lightgray" stroke="black" points="644.48,-129.85 607.48,-129.85 607.48,-111.85 644.48,-111.85 644.48,-129.85"/>
<text text-anchor="middle" x="625.98" y="-118.65" font-family="Times New Roman,serif" font-size="9.00">tile_5</text>
</g>
<!-- tile_5&#45;&gt;A -->
<g id="edge31" class="edge">
<title>tile_5&#45;&gt;A</title>
<path fill="none" stroke="green" stroke-width="0.19" d="M635.47,-111.56C640.43,-107.54 646.76,-102.9 652.98,-99.64 697.81,-76.18 719.1,-92.04 760.98,-63.64 764.93,-60.96 768.63,-57.52 771.92,-53.91"/>
<polygon fill="green" stroke="green" stroke-width="0.19" points="774.78,-55.94 778.42,-45.99 769.37,-51.5 774.78,-55.94"/>
</g>
<!-- tile_5&#45;&gt;B -->
<g id="edge32" class="edge">
<title>tile_5&#45;&gt;B</title>
<path fill="none" stroke="green" stroke-width="0.55" d="M616.35,-111.78C611.16,-107.72 604.49,-102.98 597.98,-99.64 552.95,-76.57 531.58,-92.44 489.98,-63.64 486.12,-60.96 482.54,-57.53 479.36,-53.92"/>
<polygon fill="green" stroke="green" stroke-width="0.55" points="482.06,-51.68 473.12,-46 476.56,-56.02 482.06,-51.68"/>
</g>
<!-- tile_5&#45;&gt;X -->
<g id="edge33" class="edge">
<title>tile_5&#45;&gt;X</title>
<path fill="none" stroke="red" stroke-width="0.79" d="M631.43,-111.82C640.2,-98.87 657.77,-72.96 670.39,-54.34"/>
<polygon fill="red" stroke="red" stroke-width="0.79" points="673.42,-56.11 676.13,-45.87 667.62,-52.19 673.42,-56.11"/>
</g>
<!-- tile_5&#45;&gt;Y -->
<g id="edge34" class="edge">
<title>tile_5&#45;&gt;Y</title>
<path fill="none" stroke="red" stroke-width="0.24" d="M636.35,-111.79C641.32,-108 647.39,-103.49 652.98,-99.64 677.66,-82.65 687.39,-83.32 709.98,-63.64 713.52,-60.56 716.99,-56.97 720.18,-53.36"/>
<polygon fill="red" stroke="red" stroke-width="0.24" points="722.94,-55.53 726.65,-45.6 717.56,-51.04 722.94,-55.53"/>
</g>
<!-- tile_5&#45;&gt;UP -->
<g id="edge35" class="edge">
<title>tile_5&#45;&gt;UP</title>
<path fill="none" stroke="red" stroke-width="0.13" d="M634.86,-111.7C639.85,-107.52 646.39,-102.68 652.98,-99.64 718.76,-69.26 742.21,-83.17 811.98,-63.64 833.37,-57.65 857.13,-49.66 875.15,-43.31"/>
<polygon fill="red" stroke="red" stroke-width="0.13" points="876.53,-46.53 884.77,-39.88 874.18,-39.94 876.53,-46.53"/>
</g>
<!-- tile_5&#45;&gt;DOWN -->
<g id="edge36" class="edge">
<title>tile_5&#45;&gt;DOWN</title>
<path fill="none" stroke="red" stroke-width="0.6" d="M617.21,-111.82C604.64,-100.3 580.87,-78.53 561.47,-60.75"/>
<polygon fill="red" stroke="red" stroke-width="0.6" points="563.75,-58.09 554.01,-53.92 559.02,-63.25 563.75,-58.09"/>
</g>
<!-- tile_5&#45;&gt;LEFT -->
<g id="edge37" class="edge">
<title>tile_5&#45;&gt;LEFT</title>
<path fill="none" stroke="red" stroke-width="0.11" d="M624.32,-111.82C622.28,-101.95 618.68,-84.54 615.37,-68.57"/>
<polygon fill="red" stroke="red" stroke-width="0.11" points="618.72,-67.46 613.27,-58.37 611.86,-68.88 618.72,-67.46"/>
</g>
<!-- tile_5&#45;&gt;RIGHT -->
<g id="edge38" class="edge">
<title>tile_5&#45;&gt;RIGHT</title>
<path fill="none" stroke="green" stroke-width="0.74" d="M616.73,-111.72C611.54,-107.54 604.76,-102.7 597.98,-99.64 532.36,-69.97 505.32,-93.95 439.98,-63.64 436.99,-62.25 434.01,-60.62 431.1,-58.85"/>
<polygon fill="green" stroke="green" stroke-width="0.74" points="432.88,-55.83 422.62,-53.2 429,-61.66 432.88,-55.83"/>
</g>
<!-- tile_4 -->
<g id="node6" class="node">
<title>tile_4</title>
<polygon fill="lightgray" stroke="black" points="699.48,-129.85 662.48,-129.85 662.48,-111.85 699.48,-111.85 699.48,-129.85"/>
<text text-anchor="middle" x="680.98" y="-118.65" font-family="Times New Roman,serif" font-size="9.00">tile_4</text>
</g>
<!-- tile_4&#45;&gt;A -->
<g id="edge39" class="edge">
<title>tile_4&#45;&gt;A</title>
<path fill="none" stroke="green" stroke-width="0.3" d="M692.12,-111.74C697.24,-108.03 703.4,-103.59 708.98,-99.64 731.93,-83.41 740.18,-82.55 760.98,-63.64 764.45,-60.48 767.89,-56.86 771.08,-53.24"/>
<polygon fill="green" stroke="green" stroke-width="0.3" points="773.83,-55.41 777.55,-45.49 768.45,-50.92 773.83,-55.41"/>
</g>
<!-- tile_4&#45;&gt;B -->
<g id="edge40" class="edge">
<title>tile_4&#45;&gt;B</title>
<path fill="none" stroke="red" stroke-width="0.14" d="M671.74,-111.7C666.55,-107.52 659.77,-102.68 652.98,-99.64 585.28,-69.3 553.1,-102.63 489.98,-63.64 485.98,-61.17 482.34,-57.83 479.15,-54.25"/>
<polygon fill="red" stroke="red" stroke-width="0.14" points="481.84,-52.01 472.91,-46.31 476.33,-56.34 481.84,-52.01"/>
</g>
<!-- tile_4&#45;&gt;X -->
<g id="edge41" class="edge">
<title>tile_4&#45;&gt;X</title>
<path fill="none" stroke="red" stroke-width="0.11" stroke-dasharray="1,5" d="M681.35,-111.82C681.91,-99.72 682.98,-76.29 683.82,-58.08"/>
<polygon fill="red" stroke="red" stroke-width="0.11" points="687.32,-58.23 684.28,-48.08 680.32,-57.91 687.32,-58.23"/>
</g>
<!-- tile_4&#45;&gt;Y -->
<g id="edge42" class="edge">
<title>tile_4&#45;&gt;Y</title>
<path fill="none" stroke="green" stroke-width="0.15" d="M686.06,-111.82C694.24,-98.87 710.61,-72.96 722.38,-54.34"/>
<polygon fill="green" stroke="green" stroke-width="0.15" points="725.35,-56.2 727.73,-45.87 719.43,-52.46 725.35,-56.2"/>
</g>
<!-- tile_4&#45;&gt;UP -->
<g id="edge43" class="edge">
<title>tile_4&#45;&gt;UP</title>
<path fill="none" stroke="green" stroke-width="0.49" d="M690.63,-111.8C695.82,-107.75 702.49,-103 708.98,-99.64 716.62,-95.69 822.69,-60.01 875.1,-42.47"/>
<polygon fill="green" stroke="green" stroke-width="0.49" points="876.44,-45.71 884.82,-39.22 874.22,-39.07 876.44,-45.71"/>
</g>
<!-- tile_4&#45;&gt;DOWN -->
<g id="edge44" class="edge">
<title>tile_4&#45;&gt;DOWN</title>
<path fill="none" stroke="red" stroke-width="0.73" d="M670.95,-111.84C665.76,-107.89 659.22,-103.23 652.98,-99.64 618.83,-80.01 605.94,-83.6 571.98,-63.64 569.3,-62.07 566.6,-60.35 563.91,-58.56"/>
<polygon fill="red" stroke="red" stroke-width="0.73" points="565.71,-55.54 555.51,-52.66 561.69,-61.27 565.71,-55.54"/>
</g>
<!-- tile_4&#45;&gt;LEFT -->
<g id="edge45" class="edge">
<title>tile_4&#45;&gt;LEFT</title>
<path fill="none" stroke="red" stroke-width="0.51" d="M674.24,-111.82C664.57,-100.29 646.27,-78.47 631.35,-60.68"/>
<polygon fill="red" stroke="red" stroke-width="0.51" points="633.88,-58.25 624.77,-52.84 628.52,-62.75 633.88,-58.25"/>
</g>
<!-- tile_4&#45;&gt;RIGHT -->
<g id="edge46" class="edge">
<title>tile_4&#45;&gt;RIGHT</title>
<path fill="none" stroke="green" stroke-width="0.43" d="M672.04,-111.77C666.84,-107.5 659.95,-102.56 652.98,-99.64 564.41,-62.57 528.19,-101.56 439.98,-63.64 436.95,-62.34 433.95,-60.77 431.01,-59.04"/>
<polygon fill="green" stroke="green" stroke-width="0.43" points="432.79,-56.01 422.5,-53.46 428.95,-61.87 432.79,-56.01"/>
</g>
<!-- tile_3 -->
<g id="node7" class="node">
<title>tile_3</title>
<polygon fill="lightgray" stroke="black" points="984.48,-129.85 947.48,-129.85 947.48,-111.85 984.48,-111.85 984.48,-129.85"/>
<text text-anchor="middle" x="965.98" y="-118.65" font-family="Times New Roman,serif" font-size="9.00">tile_3</text>
</g>
<!-- tile_3&#45;&gt;A -->
<g id="edge47" class="edge">
<title>tile_3&#45;&gt;A</title>
<path fill="none" stroke="red" stroke-width="0.19" d="M953.65,-111.81C947.54,-107.95 939.98,-103.37 932.98,-99.64 891.16,-77.37 840.52,-55.22 811.2,-42.84"/>
<polygon fill="red" stroke="red" stroke-width="0.19" points="812.34,-39.53 801.77,-38.89 809.64,-45.98 812.34,-39.53"/>
</g>
<!-- tile_3&#45;&gt;X -->
<g id="edge48" class="edge">
<title>tile_3&#45;&gt;X</title>
<path fill="none" stroke="red" stroke-width="0.54" d="M955.23,-111.79C949.04,-107.53 940.92,-102.58 932.98,-99.64 839.26,-64.88 797.95,-112.91 710.98,-63.64 706.64,-61.18 702.7,-57.7 699.28,-53.97"/>
<polygon fill="red" stroke="red" stroke-width="0.54" points="702,-51.77 693.01,-46.17 696.55,-56.15 702,-51.77"/>
</g>
<!-- tile_3&#45;&gt;Y -->
<g id="edge49" class="edge">
<title>tile_3&#45;&gt;Y</title>
<path fill="none" stroke="green" stroke-width="0.11" d="M954.88,-111.73C948.71,-107.56 940.72,-102.72 932.98,-99.64 860.81,-70.94 828.65,-103.49 761.98,-63.64 757.7,-61.08 753.79,-57.56 750.37,-53.81"/>
<polygon fill="green" stroke="green" stroke-width="0.11" points="753.1,-51.61 744.09,-46.02 747.65,-56 753.1,-51.61"/>
</g>
<!-- tile_3&#45;&gt;UP -->
<g id="edge50" class="edge">
<title>tile_3&#45;&gt;UP</title>
<path fill="none" stroke="red" stroke-width="0.26" d="M960.26,-111.82C951.55,-99.6 934.61,-75.82 921.58,-57.53"/>
<polygon fill="red" stroke="red" stroke-width="0.26" points="924.2,-55.18 915.55,-49.06 918.5,-59.24 924.2,-55.18"/>
</g>
<!-- tile_3&#45;&gt;DOWN -->
<g id="edge51" class="edge">
<title>tile_3&#45;&gt;DOWN</title>
<path fill="none" stroke="green" stroke-width="0.13" d="M947.26,-115.81C926.49,-111.43 891.95,-104.41 861.98,-99.64 733.72,-79.24 692.4,-112.3 571.98,-63.64 568.93,-62.41 565.9,-60.88 562.95,-59.18"/>
<polygon fill="green" stroke="green" stroke-width="0.13" points="564.72,-56.16 554.42,-53.66 560.91,-62.03 564.72,-56.16"/>
</g>
<!-- tile_3&#45;&gt;LEFT -->
<g id="edge52" class="edge">
<title>tile_3&#45;&gt;LEFT</title>
<path fill="none" stroke="green" stroke-width="0.15" d="M947.21,-116.11C926.4,-111.99 891.82,-105.2 861.98,-99.64 772.33,-82.94 745.47,-95.4 659.98,-63.64 652.74,-60.95 645.37,-57.26 638.54,-53.37"/>
<polygon fill="green" stroke="green" stroke-width="0.15" points="640,-50.16 629.62,-48.01 636.39,-56.16 640,-50.16"/>
</g>
<!-- tile_2 -->
<g id="node8" class="node">
<title>tile_2</title>
<polygon fill="lightgray" stroke="black" points="754.48,-129.85 717.48,-129.85 717.48,-111.85 754.48,-111.85 754.48,-129.85"/>
<text text-anchor="middle" x="735.98" y="-118.65" font-family="Times New Roman,serif" font-size="9.00">tile_2</text>
</g>
<!-- tile_2&#45;&gt;A -->
<g id="edge53" class="edge">
<title>tile_2&#45;&gt;A</title>
<path fill="none" stroke="green" stroke-width="0.19" d="M740.69,-111.82C748.2,-99.01 763.15,-73.48 774.04,-54.91"/>
<polygon fill="green" stroke="green" stroke-width="0.19" points="777.12,-56.58 779.15,-46.18 771.08,-53.04 777.12,-56.58"/>
</g>
<!-- tile_2&#45;&gt;B -->
<g id="edge54" class="edge">
<title>tile_2&#45;&gt;B</title>
<path fill="none" stroke="green" stroke-width="0.3" d="M727.18,-111.54C722.2,-107.32 715.66,-102.49 708.98,-99.64 618.24,-60.98 575.28,-113.17 489.98,-63.64 485.92,-61.28 482.24,-57.99 479.04,-54.43"/>
<polygon fill="green" stroke="green" stroke-width="0.3" points="481.73,-52.19 472.81,-46.47 476.22,-56.51 481.73,-52.19"/>
</g>
<!-- tile_2&#45;&gt;X -->
<g id="edge55" class="edge">
<title>tile_2&#45;&gt;X</title>
<path fill="none" stroke="green" stroke-width="0.33" d="M731.27,-111.82C723.76,-99.01 708.81,-73.48 697.92,-54.91"/>
<polygon fill="green" stroke="green" stroke-width="0.33" points="700.89,-53.04 692.81,-46.18 694.85,-56.58 700.89,-53.04"/>
</g>
<!-- tile_2&#45;&gt;Y -->
<g id="edge56" class="edge">
<title>tile_2&#45;&gt;Y</title>
<path fill="none" stroke="green" stroke-width="0.18" d="M735.98,-111.82C735.98,-99.85 735.98,-76.78 735.98,-58.65"/>
<polygon fill="green" stroke="green" stroke-width="0.18" points="739.48,-58.4 735.98,-48.4 732.48,-58.4 739.48,-58.4"/>
</g>
<!-- tile_2&#45;&gt;UP -->
<g id="edge57" class="edge">
<title>tile_2&#45;&gt;UP</title>
<path fill="none" stroke="green" stroke-width="0.47" d="M751.49,-111.82C780,-97.05 841.09,-65.4 876.69,-46.96"/>
<polygon fill="green" stroke="green" stroke-width="0.47" points="878.73,-49.84 886,-42.13 875.51,-43.63 878.73,-49.84"/>
</g>
<!-- tile_2&#45;&gt;DOWN -->
<g id="edge58" class="edge">
<title>tile_2&#45;&gt;DOWN</title>
<path fill="none" stroke="green" stroke-width="0.41" d="M727.06,-111.79C722.06,-107.64 715.52,-102.8 708.98,-99.64 652.29,-72.27 628.65,-91.07 571.98,-63.64 569.02,-62.2 566.05,-60.54 563.15,-58.74"/>
<polygon fill="green" stroke="green" stroke-width="0.41" points="564.94,-55.73 554.69,-53.05 561.03,-61.54 564.94,-55.73"/>
</g>
<!-- tile_2&#45;&gt;LEFT -->
<g id="edge59" class="edge">
<title>tile_2&#45;&gt;LEFT</title>
<path fill="none" stroke="green" stroke-width="0.12" d="M725.57,-111.84C720.6,-108.07 714.53,-103.55 708.98,-99.64 685.77,-83.29 658.95,-65.6 638.78,-52.53"/>
<polygon fill="green" stroke="green" stroke-width="0.12" points="640.6,-49.54 630.3,-47.05 636.8,-55.42 640.6,-49.54"/>
</g>
<!-- tile_2&#45;&gt;RIGHT -->
<g id="edge60" class="edge">
<title>tile_2&#45;&gt;RIGHT</title>
<path fill="none" stroke="green" stroke-width="0.23" d="M727.21,-111.46C722.25,-107.21 715.7,-102.39 708.98,-99.64 597.32,-54.02 551.6,-109.37 439.98,-63.64 436.93,-62.39 433.91,-60.86 430.97,-59.15"/>
<polygon fill="green" stroke="green" stroke-width="0.23" points="432.73,-56.13 422.44,-53.61 428.92,-62 432.73,-56.13"/>
</g>
<!-- tile_1 -->
<g id="node9" class="node">
<title>tile_1</title>
<polygon fill="lightgray" stroke="black" points="534.48,-129.85 497.48,-129.85 497.48,-111.85 534.48,-111.85 534.48,-129.85"/>
<text text-anchor="middle" x="515.98" y="-118.65" font-family="Times New Roman,serif" font-size="9.00">tile_1</text>
</g>
<!-- tile_1&#45;&gt;A -->
<g id="edge61" class="edge">
<title>tile_1&#45;&gt;A</title>
<path fill="none" stroke="red" stroke-width="0.15" d="M524.79,-111.54C529.76,-107.32 536.3,-102.49 542.98,-99.64 633.31,-61.11 675.61,-112.16 760.98,-63.64 765.32,-61.17 769.25,-57.69 772.68,-53.96"/>
<polygon fill="red" stroke="red" stroke-width="0.15" points="775.41,-56.14 778.95,-46.16 769.95,-51.76 775.41,-56.14"/>
</g>
<!-- tile_1&#45;&gt;B -->
<g id="edge62" class="edge">
<title>tile_1&#45;&gt;B</title>
<path fill="none" stroke="red" stroke-width="0.5" d="M511.27,-111.82C503.76,-99.01 488.81,-73.48 477.92,-54.91"/>
<polygon fill="red" stroke="red" stroke-width="0.5" points="480.89,-53.04 472.81,-46.18 474.85,-56.58 480.89,-53.04"/>
</g>
<!-- tile_1&#45;&gt;X -->
<g id="edge63" class="edge">
<title>tile_1&#45;&gt;X</title>
<path fill="none" stroke="red" stroke-width="0.5" d="M525.5,-111.61C530.47,-107.61 536.79,-102.96 542.98,-99.64 584.97,-77.11 602.01,-86.21 643.98,-63.64 651.21,-59.75 658.54,-54.67 664.97,-49.76"/>
<polygon fill="red" stroke="red" stroke-width="0.5" points="667.44,-52.27 673.08,-43.3 663.08,-46.79 667.44,-52.27"/>
</g>
<!-- tile_1&#45;&gt;Y -->
<g id="edge64" class="edge">
<title>tile_1&#45;&gt;Y</title>
<path fill="none" stroke="red" stroke-width="0.24" d="M524.84,-111.67C529.83,-107.49 536.37,-102.65 542.98,-99.64 612.08,-68.16 644.9,-102.75 709.98,-63.64 714.14,-61.14 717.96,-57.73 721.31,-54.09"/>
<polygon fill="red" stroke="red" stroke-width="0.24" points="724.28,-55.98 727.86,-46.01 718.84,-51.57 724.28,-55.98"/>
</g>
<!-- tile_1&#45;&gt;UP -->
<g id="edge65" class="edge">
<title>tile_1&#45;&gt;UP</title>
<path fill="none" stroke="green" stroke-width="0.57" d="M524.75,-111.46C529.71,-107.21 536.26,-102.39 542.98,-99.64 654.64,-54.02 694.49,-90.92 811.98,-63.64 833.75,-58.58 857.67,-50.49 875.66,-43.86"/>
<polygon fill="green" stroke="green" stroke-width="0.57" points="877.12,-47.06 885.25,-40.27 874.66,-40.5 877.12,-47.06"/>
</g>
<!-- tile_1&#45;&gt;DOWN -->
<g id="edge66" class="edge">
<title>tile_1&#45;&gt;DOWN</title>
<path fill="none" stroke="green" stroke-width="0.38" d="M517.37,-111.82C518.9,-102.93 521.48,-87.93 523.99,-73.37"/>
<polygon fill="green" stroke="green" stroke-width="0.38" points="527.45,-73.89 525.7,-63.44 520.56,-72.7 527.45,-73.89"/>
</g>
<!-- tile_1&#45;&gt;LEFT -->
<g id="edge67" class="edge">
<title>tile_1&#45;&gt;LEFT</title>
<path fill="none" stroke="green" stroke-width="0.27" d="M524.47,-111.82C537.27,-99.71 562.07,-76.25 581.33,-58.03"/>
<polygon fill="green" stroke="green" stroke-width="0.27" points="583.81,-60.51 588.67,-51.09 579,-55.42 583.81,-60.51"/>
</g>
<!-- tile_1&#45;&gt;RIGHT -->
<g id="edge68" class="edge">
<title>tile_1&#45;&gt;RIGHT</title>
<path fill="none" stroke="green" stroke-width="0.22" d="M504.89,-111.69C490.07,-100.77 463.01,-80.81 439.98,-63.64 437.49,-61.78 434.92,-59.86 432.33,-57.92"/>
<polygon fill="green" stroke="green" stroke-width="0.22" points="434.21,-54.96 424.11,-51.76 430.01,-60.56 434.21,-54.96"/>
</g>
<!-- tile_0 -->
<g id="node10" class="node">
<title>tile_0</title>
<polygon fill="lightgray" stroke="black" points="945.48,-196.07 908.48,-196.07 908.48,-178.07 945.48,-178.07 945.48,-196.07"/>
<text text-anchor="middle" x="926.98" y="-184.87" font-family="Times New Roman,serif" font-size="9.00">tile_0</text>
</g>
<!-- tile_0&#45;&gt;A -->
<g id="edge69" class="edge">
<title>tile_0&#45;&gt;A</title>
<path fill="none" stroke="red" stroke-width="0.27" d="M945.53,-186.58C1021.85,-188.14 1303.85,-188.15 1223.98,-99.64 1171.6,-41.59 950.26,-80.82 873.98,-63.64 852.16,-58.73 828.26,-50.01 811.05,-43.09"/>
<polygon fill="red" stroke="red" stroke-width="0.27" points="812.33,-39.84 801.75,-39.27 809.67,-46.31 812.33,-39.84"/>
</g>
<!-- tile_0&#45;&gt;B -->
<g id="edge70" class="edge">
<title>tile_0&#45;&gt;B</title>
<path fill="none" stroke="green" stroke-width="0.33" d="M908.23,-179.92C905.49,-179.19 902.68,-178.54 899.98,-178.07 834.75,-166.58 350.38,-190.29 304.98,-142.07 292.06,-128.34 293.49,-114.59 304.98,-99.64 342.81,-50.4 387.87,-97.41 439.98,-63.64 443.93,-61.08 447.54,-57.7 450.73,-54.11"/>
<polygon fill="green" stroke="green" stroke-width="0.33" points="453.54,-56.2 456.97,-46.18 448.04,-51.88 453.54,-56.2"/>
</g>
<!-- tile_0&#45;&gt;X -->
<g id="edge71" class="edge">
<title>tile_0&#45;&gt;X</title>
<path fill="none" stroke="red" stroke-width="0.25" d="M925.31,-177.89C921.3,-160.52 909.46,-119.9 882.98,-99.64 820.95,-52.18 778.04,-103.67 710.98,-63.64 706.7,-61.08 702.79,-57.56 699.37,-53.81"/>
<polygon fill="red" stroke="red" stroke-width="0.25" points="702.09,-51.61 693.09,-46.03 696.64,-56.01 702.09,-51.61"/>
</g>
<!-- tile_0&#45;&gt;Y -->
<g id="edge72" class="edge">
<title>tile_0&#45;&gt;Y</title>
<path fill="none" stroke="red" stroke-width="0.44" d="M945.76,-184.17C969.98,-180.6 1011.23,-170.46 1029.98,-142.07 1040.37,-126.33 1042.4,-113.83 1029.98,-99.64 990.42,-54.41 814.66,-92.54 761.98,-63.64 757.61,-61.24 753.66,-57.79 750.23,-54.06"/>
<polygon fill="red" stroke="red" stroke-width="0.44" points="752.95,-51.86 743.96,-46.25 747.49,-56.24 752.95,-51.86"/>
</g>
<!-- tile_0&#45;&gt;UP -->
<g id="edge73" class="edge">
<title>tile_0&#45;&gt;UP</title>
<path fill="none" stroke="green" stroke-width="0.37" d="M945.69,-185.85C1031.62,-184.64 1385.53,-177.55 1417.98,-142.07 1430.71,-128.15 1430.43,-113.81 1417.98,-99.64 1385.83,-63.04 1040.24,-40.54 934.53,-34.48"/>
<polygon fill="green" stroke="green" stroke-width="0.37" points="934.69,-30.99 924.51,-33.92 934.29,-37.98 934.69,-30.99"/>
</g>
<!-- tile_0&#45;&gt;DOWN -->
<g id="edge74" class="edge">
<title>tile_0&#45;&gt;DOWN</title>
<path fill="none" stroke="green" stroke-width="0.15" d="M908.23,-179.92C905.49,-179.19 902.68,-178.54 899.98,-178.07 836.18,-166.79 362.36,-189.27 317.98,-142.07 305.07,-128.33 306.09,-114.28 317.98,-99.64 367.23,-39.02 418.84,-95.87 489.98,-63.64 492.98,-62.28 495.97,-60.67 498.89,-58.91"/>
<polygon fill="green" stroke="green" stroke-width="0.15" points="500.98,-61.72 507.38,-53.28 497.11,-55.89 500.98,-61.72"/>
</g>
<!-- tile_0&#45;&gt;LEFT -->
<g id="edge75" class="edge">
<title>tile_0&#45;&gt;LEFT</title>
<path fill="none" stroke="green" stroke-width="0.29" d="M908.22,-179.98C905.48,-179.25 902.67,-178.58 899.98,-178.07 854.84,-169.5 519.03,-175.94 487.98,-142.07 475.24,-128.16 477.6,-115.38 487.98,-99.64 510.34,-65.73 537.49,-85.09 571.98,-63.64 575.01,-61.76 578.04,-59.63 580.99,-57.39"/>
<polygon fill="green" stroke="green" stroke-width="0.29" points="583.43,-59.92 589.01,-50.92 579.03,-54.48 583.43,-59.92"/>
</g>
<!-- tile_0&#45;&gt;RIGHT -->
<g id="edge76" class="edge">
<title>tile_0&#45;&gt;RIGHT</title>
<path fill="none" stroke="green" stroke-width="0.34" d="M908.23,-179.91C905.49,-179.19 902.68,-178.54 899.98,-178.07 833.32,-166.38 338.4,-191.31 291.98,-142.07 279.05,-128.34 282.84,-116.13 291.98,-99.64 306.33,-73.77 335.32,-56.6 359.51,-46.15"/>
<polygon fill="green" stroke="green" stroke-width="0.34" points="360.91,-49.35 368.85,-42.33 358.27,-42.87 360.91,-49.35"/>
</g>
<!-- 310 -->
<g id="node21" class="node">
<title>310</title>
<ellipse fill="white" stroke="black" cx="1387.98" cy="-120.85" rx="21.43" ry="21.43"/>
<text text-anchor="middle" x="1387.98" y="-118.65" font-family="Times New Roman,serif" font-size="9.00">310</text>
</g>
<!-- tile_0&#45;&gt;310 -->
<g id="edge79" class="edge">
<title>tile_0&#45;&gt;310</title>
<path fill="none" stroke="green" stroke-width="0.32" stroke-dasharray="1,5" d="M945.76,-185.17C1017.66,-181.59 1275.35,-167.22 1352.98,-142.07 1355.96,-141.1 1358.96,-139.86 1361.88,-138.47"/>
<polygon fill="green" stroke="green" stroke-width="0.32" points="1363.69,-141.47 1370.85,-133.66 1360.39,-135.3 1363.69,-141.47"/>
</g>
<!-- 169&#45;&gt;A -->
<g id="edge78" class="edge">
<title>169&#45;&gt;A</title>
<path fill="none" stroke="red" stroke-width="0.36" d="M1158.82,-108.16C1153.33,-104.92 1147.09,-101.72 1140.98,-99.64 1027.66,-60.97 990.37,-91.78 873.98,-63.64 852.24,-58.38 828.34,-49.69 811.1,-42.88"/>
<polygon fill="red" stroke="red" stroke-width="0.36" points="812.37,-39.62 801.78,-39.12 809.75,-46.11 812.37,-39.62"/>
</g>
<!-- 333&#45;&gt;X -->
<g id="edge82" class="edge">
<title>333&#45;&gt;X</title>
<path fill="none" stroke="green" stroke-width="0.12" d="M814.05,-108.91C808.65,-105.77 802.64,-102.44 796.98,-99.64 759.85,-81.24 744.38,-88.16 710.98,-63.64 707.13,-60.81 703.49,-57.31 700.21,-53.68"/>
<polygon fill="green" stroke="green" stroke-width="0.12" points="702.76,-51.26 693.7,-45.77 697.35,-55.71 702.76,-51.26"/>
</g>
<!-- 310&#45;&gt;UP -->
<g id="edge80" class="edge">
<title>310&#45;&gt;UP</title>
<path fill="none" stroke="red" stroke-width="0.25" d="M1370.8,-108.21C1365.31,-104.98 1359.08,-101.77 1352.98,-99.64 1202.27,-47.05 1008.99,-35.85 934.83,-33.46"/>
<polygon fill="red" stroke="red" stroke-width="0.25" points="934.87,-29.96 924.77,-33.17 934.67,-36.96 934.87,-29.96"/>
</g>
</g>
</svg>
